#!OML:ASF E:\Steps\Project 1\Capture day 1\Session 2\Subject.ASF
:FULLY-SPECIFIED
:DEGREES
497
root 9.28071 16.1949 23.2282 -154.686 -2.39029 177.862
lowerback -28.2845 -1.77641 -5.49668
upperback -2.40157 -1.29067 -0.369344
thorax 13.1293 -1.19839 2.17991
lowerneck 2.35674 -3.05025 -1.28111
upperneck -11.0798 -4.29945 3.04431
head -3.93083 -2.38163 1.42309
rclavicle -5.96354e-015 2.06736e-014
rhumerus -34.7399 -16.2364 -80.7421
rradius 29.2005
rwrist 1.48215
rhand -8.39614 -53.1141
rfingers 7.12502
rthumb 17.5276 -82.3439
lclavicle -5.96354e-015 2.06736e-014
lhumerus -30.446 5.5268 82.0089
lradius 20.4178
lwrist -6.73692
lhand -21.3549 -11.0997
lfingers 7.12502
lthumb 5.03172 18.8206
rfemur -23.8676 8.84743 18.9072
rtibia 16.1931
rfoot -23.914 -6.67718
rtoes -18.8698
lfemur -26.2833 -11.5607 -19.6439
ltibia 20.4371
lfoot -14.7446 4.60151
ltoes -38.501
498
root 9.27429 16.1941 23.2219 -154.59 -2.44612 177.906
lowerback -28.4055 -1.75662 -5.43656
upperback -2.41939 -1.28355 -0.364347
thorax 13.1706 -1.19504 2.15136
lowerneck 2.2711 -3.11054 -1.28851
upperneck -11.1632 -4.3808 3.15899
head -3.9392 -2.43154 1.46566
rclavicle 9.81499e-015 -1.98785e-016
rhumerus -34.7015 -16.4834 -80.6252
rradius 28.9345
rwrist 1.74735
rhand -8.44925 -52.7214
rfingers 7.12502
rthumb 17.4765 -81.9558
lclavicle 9.81499e-015 -1.98785e-016
lhumerus -30.4506 5.36383 82.1031
lradius 20.4636
lwrist -6.78946
lhand -21.577 -11.148
lfingers 7.12502
lthumb 4.81722 18.7772
rfemur -23.868 8.68349 18.957
rtibia 16.0563
rfoot -23.8561 -6.55712
rtoes -19.1885
lfemur -26.4032 -11.6251 -19.5798
ltibia 20.4865
lfoot -14.8047 4.51669
ltoes -37.8378
499
root 9.26864 16.193 23.2201 -154.621 -2.43182 177.86
lowerback -28.3519 -1.77139 -5.48251
upperback -2.41438 -1.28913 -0.365661
thorax 13.1494 -1.19886 2.17526
lowerneck 2.17005 -3.10559 -1.35565
upperneck -11.1057 -4.37238 3.22188
head -3.89652 -2.42707 1.49353
rclavicle 8.59744e-015 5.36719e-015
rhumerus -34.6549 -16.3775 -80.6417
rradius 28.7444
rwrist 1.75607
rhand -8.63487 -52.8855
rfingers 7.12502
rthumb 17.2979 -82.1357
lclavicle 8.59744e-015 5.36719e-015
lhumerus -30.487 5.0731 82.2808
lradius 20.6157
lwrist -6.48807
lhand -21.7468 -10.9309
lfingers 7.12502
lthumb 4.65328 18.9979
rfemur -23.8639 8.64289 18.8933
rtibia 16.1642
rfoot -23.8887 -6.61984
rtoes -20.2192
lfemur -26.4016 -11.5965 -19.6571
ltibia 20.5257
lfoot -14.8106 4.32108
ltoes -36.9076
500
root 9.26504 16.1929 23.2151 -154.731 -2.39551 177.825
lowerback -28.2576 -1.78312 -5.53826
upperback -2.39358 -1.28373 -0.388293
thorax 13.1241 -1.19635 2.18515
lowerneck 2.16187 -3.0894 -1.41386
upperneck -11.0731 -4.34737 3.27156
head -3.88183 -2.41362 1.5182
rclavicle 4.79568e-015 -2.42517e-014
rhumerus -34.6464 -16.1724 -80.7642
rradius 28.6022
rwrist 1.69968
rhand -8.82971 -53.2665
rfingers 7.12502
rthumb 17.1104 -82.533
lclavicle 4.79568e-015 -2.42517e-014
lhumerus -30.5613 4.83156 82.3774
lradius 20.778
lwrist -6.23461
lhand -21.8322 -10.9802
lfingers 7.12502
lthumb 4.57078 18.9505
rfemur -23.7218 8.75942 18.8358
rtibia 16.2176
rfoot -23.9916 -6.69037
rtoes -20.2234
lfemur -26.265 -11.5084 -19.7477
ltibia 20.5125
lfoot -14.7404 4.21753
ltoes -36.8897
501
root 9.26033 16.1948 23.2096 -154.741 -2.32416 177.855
lowerback -28.2816 -1.72521 -5.50711
upperback -2.39964 -1.21301 -0.439792
thorax 13.122 -1.16208 2.13466
lowerneck 2.19267 -3.0982 -1.41977
upperneck -11.1014 -4.35569 3.32389
head -3.89649 -2.42057 1.53868
rclavicle 5.46658e-016 2.0276e-014
rhumerus -34.6992 -16.3218 -80.7692
rradius 28.4389
rwrist 1.83596
rhand -8.60872 -53.1153
rfingers 7.12502
rthumb 17.3231 -82.3633
lclavicle 5.46658e-016 2.0276e-014
lhumerus -30.5669 4.69515 82.3553
lradius 20.7998
lwrist -6.18851
lhand -21.8026 -11.3153
lfingers 7.12502
lthumb 4.59936 18.6147
rfemur -23.6383 8.87174 18.8075
rtibia 16.0646
rfoot -24.0086 -6.60911
rtoes -19.3742
lfemur -26.2118 -11.4834 -19.7555
ltibia 20.462
lfoot -14.6705 4.41791
ltoes -37.921
502
root 9.25379 16.1981 23.2059 -154.722 -2.236 177.898
lowerback -28.322 -1.6484 -5.47038
upperback -2.41938 -1.12387 -0.469196
thorax 13.1113 -1.12044 2.11351
lowerneck 2.21599 -3.11326 -1.444
upperneck -11.1501 -4.37381 3.38893
head -3.91606 -2.43299 1.5674
rclavicle 1.04859e-014 -3.97569e-016
rhumerus -34.7725 -16.7952 -80.5312
rradius 28.1525
rwrist 2.21234
rhand -8.32588 -52.6687
rfingers 7.12502
rthumb 17.5953 -81.8925
lclavicle 1.04859e-014 -3.97569e-016
lhumerus -30.5545 4.60873 82.3485
lradius 20.7334
lwrist -6.3107
lhand -21.7645 -11.5571
lfingers 7.12502
lthumb 4.63618 18.3721
rfemur -23.6233 8.86393 18.8002
rtibia 15.9226
rfoot -23.8922 -6.50994
rtoes -19.123
lfemur -26.1952 -11.4994 -19.748
ltibia 20.4194
lfoot -14.6425 4.57567
ltoes -38.0259
503
root 9.24646 16.195 23.1949 -154.688 -2.11864 177.964
lowerback -28.4883 -1.5817 -5.45039
upperback -2.4359 -1.04253 -0.461044
thorax 13.1727 -1.08744 2.14006
lowerneck 2.22687 -3.13838 -1.4734
upperneck -11.1719 -4.40225 3.47945
head -3.9227 -2.45076 1.60479
rclavicle -6.70898e-015 0
rhumerus -34.8867 -17.0522 -80.2981
rradius 27.9322
rwrist 2.44167
rhand -8.41949 -52.5022
rfingers 7.12502
rthumb 17.5052 -81.7341
lclavicle -6.70898e-015 0
lhumerus -30.6554 4.41401 82.4709
lradius 20.778
lwrist -6.34862
lhand -21.9194 -11.5009
lfingers 7.12502
lthumb 4.4866 18.4315
rfemur -23.6169 8.88172 18.8261
rtibia 15.899
rfoot -23.8638 -6.45307
rtoes -19.389
lfemur -26.141 -11.5526 -19.7161
ltibia 20.3706
lfoot -14.6759 4.61598
ltoes -37.0585
504
root 9.24406 16.1955 23.1883 -154.716 -2.14873 177.986
lowerback -28.534 -1.60765 -5.51237
upperback -2.42804 -1.05585 -0.44373
thorax 13.2084 -1.0985 2.18973
lowerneck 2.15063 -3.1509 -1.47116
upperneck -11.0819 -4.40936 3.55613
head -3.87406 -2.45593 1.6253
rclavicle -8.99501e-015 -1.45113e-014
rhumerus -34.9448 -17.1592 -80.2073
rradius 27.8106
rwrist 2.53421
rhand -8.37723 -52.5007
rfingers 7.12502
rthumb 17.5458 -81.729
lclavicle -8.99501e-015 -1.45113e-014
lhumerus -30.7233 4.17658 82.6359
lradius 20.8848
lwrist -6.19029
lhand -22.1527 -11.2179
lfingers 7.12502
lthumb 4.26136 18.7192
rfemur -23.4919 8.94798 18.8552
rtibia 15.8173
rfoot -23.8605 -6.49708
rtoes -19.229
lfemur -26.0763 -11.5723 -19.7049
ltibia 20.3914
lfoot -14.7309 4.51548
ltoes -36.7535
505
root 9.23894 16.1951 23.183 -154.673 -2.08859 178.004
lowerback -28.6821 -1.60192 -5.50612
upperback -2.40393 -1.04028 -0.452094
thorax 13.3138 -1.09413 2.17955
lowerneck 2.12715 -3.16644 -1.50978
upperneck -11.0895 -4.42494 3.66369
head -3.86876 -2.46802 1.66812
rclavicle 5.76476e-015 -1.37161e-014
rhumerus -34.89 -17.433 -80.0969
rradius 27.5901
rwrist 2.71829
rhand -8.30824 -52.5755
rfingers 7.12502
rthumb 17.6122 -81.7978
lclavicle 5.76476e-015 -1.37161e-014
lhumerus -30.6859 4.17833 82.6769
lradius 20.9274
lwrist -6.15685
lhand -22.094 -11.2443
lfingers 7.12502
lthumb 4.31802 18.6916
rfemur -23.4607 8.96669 18.8313
rtibia 15.6487
rfoot -23.7509 -6.4346
rtoes -19.073
lfemur -26.0845 -11.5371 -19.7239
ltibia 20.3598
lfoot -14.7022 4.45987
ltoes -36.7207
506
root 9.2329 16.1923 23.1784 -154.631 -2.01819 178.016
lowerback -28.8583 -1.61085 -5.52923
upperback -2.01216 -1.037 -0.34455
thorax 13.0609 -1.08599 2.17457
lowerneck 2.20696 -3.16629 -1.62862
upperneck -11.2235 -4.42799 3.76714
head -3.92747 -2.47342 1.73029
rclavicle 4.96962e-016 9.74045e-015
rhumerus -34.8218 -17.6369 -79.9179
rradius 27.3223
rwrist 2.8547
rhand -8.32389 -52.7274
rfingers 7.12502
rthumb 17.5972 -81.951
lclavicle 4.96962e-016 9.74045e-015
lhumerus -30.6786 4.37123 82.7088
lradius 20.9614
lwrist -6.24963
lhand -21.8002 -11.2568
lfingers 7.12502
lthumb 4.60173 18.6732
rfemur -23.4204 8.82611 18.831
rtibia 15.4771
rfoot -23.6705 -6.31975
rtoes -19.7976
lfemur -26.088 -11.5345 -19.7518
ltibia 20.3141
lfoot -14.6576 4.43192
ltoes -36.3854
507
root 9.2294 16.1912 23.1738 -154.671 -2.04614 178.039
lowerback -28.8573 -1.6522 -5.57465
upperback -2.00276 -1.08274 -0.26839
thorax 13.077 -1.10997 2.26424
lowerneck 2.24752 -3.12818 -1.72884
upperneck -11.2817 -4.38164 3.79435
head -3.95517 -2.449 1.75847
rclavicle 8.19987e-016 6.36111e-015
rhumerus -34.7774 -17.8503 -79.7021
rradius 27.0442
rwrist 3.08725
rhand -8.2692 -52.7818
rfingers 7.12502
rthumb 17.6498 -82.0008
lclavicle 8.19987e-016 6.36111e-015
lhumerus -30.6754 4.45955 82.8163
lradius 20.936
lwrist -6.34757
lhand -21.7801 -10.9952
lfingers 7.12502
lthumb 4.62114 18.9344
rfemur -23.3096 8.78178 18.8765
rtibia 15.4025
rfoot -23.7531 -6.34813
rtoes -20.2001
lfemur -26.0069 -11.5487 -19.7356
ltibia 20.2798
lfoot -14.7613 4.47181
ltoes -36.554
508
root 9.22725 16.1921 23.1711 -154.702 -2.10329 178.063
lowerback -28.8487 -1.69047 -5.60834
upperback -1.99675 -1.12309 -0.248137
thorax 13.084 -1.13005 2.28931
lowerneck 2.26571 -3.13481 -1.73013
upperneck -11.3231 -4.38756 3.85762
head -3.97205 -2.45644 1.78203
rclavicle 8.02593e-015 -1.72943e-014
rhumerus -34.8457 -17.8782 -79.6772
rradius 26.9547
rwrist 3.19645
rhand -8.33981 -52.8052
rfingers 7.12502
rthumb 17.5819 -82.0302
lclavicle 8.02593e-015 -1.72943e-014
lhumerus -30.6301 4.39711 82.8741
lradius 20.8444
lwrist -6.46921
lhand -21.9099 -10.8609
lfingers 7.12502
lthumb 4.4958 19.0714
rfemur -23.2263 8.87392 18.9038
rtibia 15.3471
rfoot -23.8282 -6.47025
rtoes -19.9637
lfemur -25.9666 -11.5004 -19.7134
ltibia 20.3027
lfoot -14.9037 4.43503
ltoes -36.6013
509
root 9.22421 16.1929 23.1709 -154.66 -2.10224 178.109
lowerback -28.8968 -1.68678 -5.59534
upperback -2.01693 -1.12299 -0.273382
thorax 13.0817 -1.13089 2.25364
lowerneck 2.33984 -3.21326 -1.68873
upperneck -11.4774 -4.48571 4.01917
head -4.03608 -2.52014 1.83993
rclavicle -2.80783e-015 -2.66371e-014
rhumerus -34.9393 -17.8742 -79.7506
rradius 26.9295
rwrist 3.1969
rhand -8.43714 -52.9121
rfingers 7.12502
rthumb 17.4882 -82.1454
lclavicle -2.80783e-015 -2.66371e-014
lhumerus -30.6248 4.21235 82.9232
lradius 20.8267
lwrist -6.41623
lhand -21.8511 -10.9085
lfingers 7.12502
lthumb 4.55259 19.0226
rfemur -23.2436 8.97007 18.9282
rtibia 15.2657
rfoot -23.7545 -6.54784
rtoes -19.7102
lfemur -26.0465 -11.421 -19.6691
ltibia 20.3836
lfoot -14.9488 4.32942
ltoes -35.9424
510
root 9.21945 16.1923 23.1675 -154.63 -2.04925 178.084
lowerback -28.9781 -1.66766 -5.62302
upperback -2.03067 -1.084 -0.33473
thorax 13.0977 -1.11673 2.21478
lowerneck 2.474 -3.28922 -1.68215
upperneck -11.6501 -4.57904 4.20053
head -4.11774 -2.58103 1.91345
rclavicle 4.52235e-015 1.19271e-015
rhumerus -34.9033 -18.5905 -79.4769
rradius 26.5192
rwrist 3.75855
rhand -8.29782 -52.6826
rfingers 7.12502
rthumb 17.6223 -81.904
lclavicle 4.52235e-015 1.19271e-015
lhumerus -30.6321 4.03222 82.965
lradius 20.795
lwrist -6.27872
lhand -21.7441 -10.9958
lfingers 7.12502
lthumb 4.65586 18.933
rfemur -23.2472 9.11395 18.846
rtibia 15.2111
rfoot -23.7044 -6.66422
rtoes -19.5951
lfemur -26.0658 -11.4174 -19.7239
ltibia 20.3895
lfoot -14.9237 4.37615
ltoes -36.1285
